# xmcd
#
# Track frame offsets:
# 150
# 19771
# 28859
# 47171
# 60230
# 80711
# 100496
# 114159
# 129372
# 141344
# 153726
# 166590
# 181975
# 198257
# 215321
# 232307
# 250613
# 264201
# 279948
#
# Disc length: 4037 seconds
#
#
# Revision: 0
# Processed by: cddbd v1.5.2PL0 Copyright (c) Steve Scherf et al.
# Submitted via: FreeRIP 2.951 
#
DISCID=000fc313
DTITLE=Jay Dee - Story CD3
DYEAR=1900
DGENRE=Hip-Hop
TTITLE0=I believe in you remix
TTITLE1=Do ya Thang
TTITLE2=Stupid
TTITLE3=Door(Black Milk)
TTITLE4=Theres a war going on
TTITLE5=The Movement
TTITLE6=We Ganstas Knottz
TTITLE7=Renaissance Man(Tone)
TTITLE8=Love
TTITLE9=My Own Label
TTITLE10=Act Like You Know
TTITLE11=Shotgun Remix(MED Invincible)
TTITLE12=Dollar
TTITLE13=Tip Sometimes Remix(Ummah)
TTITLE14=Get Hype(Papoose Cassidy)
TTITLE15=Come Get It
TTITLE16=Diamonds
TTITLE17=Workinonit
TTITLE18=Eve Remix
EXTD=
EXTT0=
EXTT1=
EXTT2=
EXTT3=
EXTT4=
EXTT5=
EXTT6=
EXTT7=
EXTT8=
EXTT9=
EXTT10=
EXTT11=
EXTT12=
EXTT13=
EXTT14=
EXTT15=
EXTT16=
EXTT17=
EXTT18=
PLAYORDER=
